PathFileType	4	(X/Y/Z)	C:\Users\Biomechanik\SynologyDrive\AlexP\Athlete_03\Athlete_3_25_03_31\Walking_04\marker_experimental.trc
DataRate	CameraRate	NumFrames	NumMarkers	Units	OrigDataRate	OrigDataStartFrame	OrigNumFrames
200.000000	200.000000	4	53	mm	200.000000	0	463
Frame#	Time	GLAB			RFHD			LFHD			C7			T6			SPINMOL			SPINM2			SPINM3			T12			BELTOL			BELT2			BELT3			SACROL			SACR2			SACR3			LTHOL			LTH2			LTH3			LSHAOL			LSHA2			LSHA3			LHEE			LTOE			LM5			RTH2			RSHAOL			RSHA2			RSHA3			RHEE			RTOE			RM5			STRN			XIPH			LACR			LUAOL			LUA2			LUA3			LLAOL			LLA2			LLA3			LWRR			LWRU			RACR			RUAOL			RUA2			RUA3			RLAOL			RLA2			RLA3			RWRR			RWRU			RTH3			RTHOL			
		X1	Y1	Z1	X2	Y2	Z2	X3	Y3	Z3	X4	Y4	Z4	X5	Y5	Z5	X6	Y6	Z6	X7	Y7	Z7	X8	Y8	Z8	X9	Y9	Z9	X10	Y10	Z10	X11	Y11	Z11	X12	Y12	Z12	X13	Y13	Z13	X14	Y14	Z14	X15	Y15	Z15	X16	Y16	Z16	X17	Y17	Z17	X18	Y18	Z18	X19	Y19	Z19	X20	Y20	Z20	X21	Y21	Z21	X22	Y22	Z22	X23	Y23	Z23	X24	Y24	Z24	X25	Y25	Z25	X26	Y26	Z26	X27	Y27	Z27	X28	Y28	Z28	X29	Y29	Z29	X30	Y30	Z30	X31	Y31	Z31	X32	Y32	Z32	X33	Y33	Z33	X34	Y34	Z34	X35	Y35	Z35	X36	Y36	Z36	X37	Y37	Z37	X38	Y38	Z38	X39	Y39	Z39	X40	Y40	Z40	X41	Y41	Z41	X42	Y42	Z42	X43	Y43	Z43	X44	Y44	Z44	X45	Y45	Z45	X46	Y46	Z46	X47	Y47	Z47	X48	Y48	Z48	X49	Y49	Z49	X50	Y50	Z50	X51	Y51	Z51	X52	Y52	Z52	X53	Y53	Z53	

1	0	-739.6507568359376	1562.569580078125	256.6463928222655	-793.5230102539065	1587.056762695312	319.9545288085936	-782.5853881835939	1587.45263671875	182.870407104492	-969.9323730468751	1405.66015625	234.9665527343748	-1031.268432617188	1238.074951171875	231.8252563476561	-1040.433837890625	1197.512573242188	211.143356323242	-1044.792846679688	1190.432250976562	260.8344421386717	-1036.083251953125	1133.534057617188	227.6020202636717	-1011.865173339844	1067.369873046875	231.5204315185545	-1050.416381835938	1033.626098632812	223.5156249999998	-1044.673950195312	1029.622314453125	273.4076538085936	-1053.470947265625	970.7002563476561	243.2011108398436	-1040.027099609375	929.3607177734374	227.1477203369139	-1029.53564453125	922.2766723632811	277.0635681152342	-1054.306640625	867.9088745117186	248.3067321777342	-1026.137329101562	670.7109985351561	51.17098236083965	-1082.744873046875	631.6668701171874	90.88082885742168	-1042.092529296875	613.8708496093749	68.58170318603497	-1143.782958984375	333.9549560546874	73.21323394775369	-1209.0224609375	292.7418212890624	86.6456604003904	-1161.196533203125	277.0115966796874	82.52069091796854	-1297.136840820312	113.2559585571288	179.131149291992	-1092.483032226562	40.2905197143554	170.3303222656248	-1142.598266601562	30.07409286499016	71.97467041015604	-779.4802246093751	608.3882446289062	427.5199279785155	-710.6488037109376	316.4987792968749	405.2102661132811	-646.5835571289064	269.6925048828124	411.4310607910155	-691.6807250976564	259.0079956054687	392.9151306152343	-600.1138305664062	49.98599243164059	302.2373962402343	-413.7620544433594	147.1575927734375	316.1686096191406	-444.0024414062501	99.2270584106445	413.9736328124999	-799.6172485351564	1300.064819335938	240.5817413330077	-787.3361816406251	1157.069213867188	233.2989959716795	-884.1249389648439	1372.211547851562	65.41020965576156	-861.6951904296876	1228.372314453125	-40.39999008178727	-860.5149536132814	1166.6416015625	-62.25294494628922	-811.8997192382814	1179.567626953125	-40.3455200195314	-735.0630493164064	997.7074584960938	-81.92722320556655	-727.4581298828125	920.6456298828125	-64.51592254638685	-692.1182250976564	955.38623046875	-69.5074157714845	-611.9152221679688	892.8281860351562	-48.33147430419933	-599.6948852539062	924.8740844726562	22.70263481140126	-893.8697509765627	1357.68603515625	407.282012939453	-944.5053710937502	1215.76708984375	501.432647705078	-933.1599731445315	1152.038818359375	515.6283569335935	-983.4637451171877	1164.459838867188	518.0834350585935	-993.5317382812502	946.5756835937499	562.5529785156248	-957.1986694335939	891.9595947265624	605.5067138671873	-994.2322387695314	885.3355712890624	572.9221191406248	-972.3353271484376	800.7993774414061	599.6361694335935	-917.4336547851564	775.6705932617188	541.7753295898436	nan	nan	nan	nan	nan	nan	
2	0.005	-732.4722900390626	1562.032104492188	258.0157775878905	-785.6594238281252	1586.402709960938	320.4621276855467	-775.5917968750001	1586.955932617188	184.3098754882811	-962.7579956054689	1404.99072265625	236.456817626953	-1023.924438476563	1237.331176757812	232.9772033691404	-1033.092529296875	1196.813598632812	212.2169494628904	-1037.438720703125	1189.63916015625	261.887969970703	-1028.6806640625	1132.813110351562	228.5357971191404	-1004.357177734375	1066.661254882812	232.2389984130858	-1043.015014648438	1032.885009765625	224.5031280517576	-1037.22119140625	1028.798217773438	274.4019470214842	-1045.977783203125	969.9094238281249	244.0944366455076	-1032.4833984375	928.5608520507811	227.9929351806639	-1021.84716796875	921.4575195312499	277.8181152343748	-1046.567138671875	867.0581665039061	249.1425323486326	-1019.897277832031	671.1260986328124	51.3378143310545	-1076.143920898438	631.7434692382811	91.25234985351543	-1035.548828125	613.7766113281249	68.86003875732403	-1139.485717773438	335.1119995117187	72.99106597900369	-1205.055786132812	294.8418579101562	86.48067474365212	-1157.609008789062	278.4353332519531	82.42604827880838	-1295.51171875	116.7423400878905	178.6705474853513	-1092.078369140625	40.14748001098626	170.2861175537107	-1142.112915039062	30.22763824462884	71.94435882568338	-769.9583740234376	609.0549926757812	427.7828369140624	-703.8458862304689	315.9408264160156	405.6429443359374	-640.9480590820314	268.8090515136718	412.732940673828	-685.6479492187501	258.4006042480468	393.4573974609374	-597.0234985351562	48.43270492553707	302.4925231933593	-409.3338317871094	142.8965606689453	315.9471435546874	-440.1882934570313	95.3095779418945	413.3705749511718	-792.2038574218751	1299.6435546875	241.7705230712889	-779.9154052734376	1156.594970703125	234.2474060058592	-877.0966796875001	1372.017211914062	66.78566741943344	-854.3627319335939	1228.258666992188	-39.12717437744156	-853.4775390625001	1166.554565429688	-60.95828628540055	-810.1191406250001	1179.949096679688	-38.0397224426271	-727.9531860351564	997.5720825195312	-80.61120605468763	-720.1027221679688	920.638427734375	-63.37779617309584	-684.8735351562501	955.408203125	-68.16280364990247	-604.39599609375	893.1373901367188	-46.99102783203136	-592.4459228515625	924.9772338867188	23.92626953124989	-886.619079589844	1356.924682617188	408.678497314453	-937.1272583007815	1214.669067382812	502.262969970703	-924.3035278320315	1150.138671875	514.5402221679686	-975.7500610351565	1163.615844726562	518.8144531249998	-986.3310546875002	945.4938964843749	563.0075073242185	-950.2327270507814	890.6945190429686	606.193420410156	-987.1465454101564	884.2149047851561	573.3156127929685	-965.3551635742189	799.5917968749999	599.9559936523435	-910.4634399414064	774.4322509765625	542.1459350585936	-811.8661499023439	589.9342041015625	403.1282348632811	nan	nan	nan	
3	0.01	-727.4238891601564	1561.1982421875	259.432403564453	-779.3579711914065	1585.893188476562	322.8465270996092	-768.6428222656251	1586.524047851562	185.6955413818358	-955.5650634765626	1404.335083007812	237.9711303710936	-1016.561340332031	1236.620971679688	234.1484527587889	-1025.712768554688	1196.140747070312	213.2927093505857	-1029.96630859375	1188.889526367188	262.9847412109373	-1021.276306152344	1132.109985351562	229.4553527832029	-996.7636718750001	1066.005981445312	233.0307312011717	-1035.574584960938	1032.1201171875	225.4626159667967	-1029.724853515625	1028.007446289062	275.3562927246092	-1038.444091796875	969.1412353515624	245.0510864257811	-1024.791259765625	927.8051757812499	228.8120269775389	-1014.195495605469	920.7149047851561	278.7345581054686	-1038.7705078125	866.2503662109374	250.0071105957029	-1012.687316894531	670.6082153320311	51.79737091064435	-1069.411865234375	631.8207397460936	91.63029479980449	-1028.528564453125	613.5794677734374	69.32274627685528	-1135.000122070312	336.2942199707031	72.78496551513651	-1201.108032226562	296.7632141113281	86.24877929687477	-1153.716430664062	279.8722534179687	82.11074829101541	-1293.635620117188	120.2099151611327	178.2030792236326	-1091.701049804688	39.9709396362304	170.2933044433592	-1141.739501953125	30.46563720703118	71.89238739013651	-760.3884277343751	609.9073486328125	428.0249023437499	-696.9786987304689	315.9088745117187	406.3598022460936	-634.5361938476564	267.2200927734374	412.8353881835936	-679.7753295898439	257.8085937499999	393.9619140624999	-594.2896728515625	46.11446380615231	302.2109374999999	-405.4598388671876	138.4267272949218	315.8544616699218	-436.6130371093751	90.83097839355466	413.0405578613281	-784.8999633789064	1299.151489257812	242.9927368164061	-771.5983276367189	1156.289428710938	235.3563690185545	-869.9971313476564	1371.787109375	68.22042846679672	-847.0830688476564	1228.154296875	-37.78211975097672	-846.3040161132814	1166.3486328125	-59.91136550903336	-803.1220092773439	1179.842895507812	-36.70968627929702	-720.7582397460939	997.33740234375	-79.52059173583997	-713.021484375	920.6666870117188	-62.33552932739271	-677.6607055664064	955.350341796875	-67.20072937011732	-597.3406372070312	893.2052612304688	-46.06062316894542	-585.2659301757812	924.9944458007812	25.1241054534911	-879.275085449219	1356.124877929688	409.9881591796873	-929.8645629882815	1213.753295898438	503.4239807128905	-918.4024658203127	1149.838989257812	517.3302001953124	-968.6983642578127	1162.51220703125	519.8146362304685	-979.100280761719	944.3898925781249	563.5283203124998	-943.1298217773439	889.5166625976561	606.6691894531248	-979.9461059570314	883.1263427734374	573.7250976562498	-958.2962036132814	798.4973754882811	600.2744140624998	-903.3829956054689	773.2149047851562	542.5192871093749	-800.5466918945314	589.0360107421875	404.611846923828	-835.6823730468751	637.1185913085938	414.3680419921873	
4	0.015	-720.3615722656251	1560.76025390625	260.8619079589843	-771.440124511719	1585.437255859375	323.3204040527343	-761.6890258789064	1586.126586914062	187.101593017578	-948.3583374023439	1403.70556640625	239.5175628662108	-1009.171325683594	1235.922241210938	235.3328857421873	-1018.302185058594	1195.522216796875	214.3771972656248	-1022.497985839844	1188.146118164062	264.0886840820311	-1013.849365234375	1131.4716796875	230.4320526123045	-989.2018432617189	1065.356201171875	233.8549804687498	-1028.059936523438	1031.397216796875	226.4590606689451	-1022.149536132813	1027.259399414062	276.348419189453	-1030.80859375	968.3773803710936	245.9521484374998	-1017.013000488281	927.0843505859374	229.6159973144529	-1006.141540527344	919.9625854492186	279.2747802734373	-1030.858276367188	865.4742431640624	250.8050537109373	-1005.688720703125	670.4874267578124	52.18122482299786	-1062.519409179688	631.8906860351561	92.03590393066386	-1022.242370605469	613.9007568359374	69.33594512939435	-1130.285522460938	337.5939331054687	72.57386779785135	-1196.791137695312	298.9931640624999	86.11736297607401	-1151.64599609375	280.9494628906249	82.53561401367166	-1291.532958984375	123.7529067993163	177.6886291503904	-1091.278442382812	39.76324844360345	170.2796936035154	-1141.252075195312	30.82500457763665	71.85698699951151	-750.8299560546876	610.7271118164062	428.3686523437499	-690.2814331054689	315.4514465332031	406.9542541503905	-628.6203613281251	265.3714904785156	413.0349121093749	-673.9400634765626	257.0774841308593	394.4519042968749	-592.1965942382812	44.04569244384762	301.9164733886718	-402.1484680175782	133.7481384277343	315.7915649414062	-434.8220214843751	87.03491210937497	413.6763610839843	-777.1293945312501	1298.837158203125	244.3213500976561	-763.6150512695314	1155.976440429688	236.4014892578124	-862.8832397460939	1371.622314453125	69.66783905029281	-839.7680053710939	1228.098022460938	-36.37754058837906	-839.2413330078126	1166.332763671875	-58.50545501709	-795.9033813476564	1179.454956054688	-35.38894653320327	-713.8678588867189	997.4749755859375	-78.33880615234388	-705.8046875	920.5137329101562	-61.17989730834974	-670.6389770507814	955.3883056640625	-66.01809692382825	-590.0402221679688	893.4292602539062	-44.83143997192393	-578.3328857421875	925.0759887695312	26.31526374816884	-871.9599609375002	1355.376586914062	411.3648376464842	-922.4758911132815	1212.787475585938	504.511993408203	-910.1043090820315	1148.4482421875	517.2076416015624	-961.0484008789065	1161.595825195312	520.6492919921873	-971.715759277344	943.3530273437499	564.0382080078123	-935.5349121093751	888.1234741210936	606.8111572265623	-972.6242675781251	882.0394897460936	574.1085205078123	-950.6981811523439	797.0017700195311	600.4797363281248	-896.1590576171876	772.1475219726562	542.7924194335936	-788.3755493164064	587.5905151367188	406.4337768554686	-824.5687866210939	636.5652465820312	416.2709960937498	
